<svg xmlns="http://www.w3.org/2000/svg" width="1000" height="1000" viewBox="0 0 1000 1000">
  <defs>
    <style>
      .cls-1 {
        fill: #0f0f0f;
        stroke: #000;
        stroke-width: 1px;
        fill-rule: evenodd;
      }
    </style>
  </defs>
  <path id="_4_1" data-name="4 1" class="cls-1" d="M294.142,250.03h58.817v14.7h29.408v29.408h14.7V426.479h29.408V294.142h14.705V264.734h29.408v-14.7h58.816v14.7h29.408v29.408h14.7V411.775h14.7v14.7H705.858v14.705h29.408v29.408h14.7v58.816h-14.7v29.408H705.858v14.7H588.225v14.7h-14.7V705.858h-14.7v29.408H529.408v14.7H470.592v-14.7H441.184V705.858H426.479V588.225h-14.7v-14.7H294.142v-14.7H264.734V529.408h-14.7V294.142h14.7V264.734h29.408v-14.7Z"/>
</svg>
