<svg xmlns="http://www.w3.org/2000/svg" width="1000" height="1000" viewBox="0 0 1000 1000">
  <defs>
    <style>
      .cls-1 {
        fill: #0f0f0f;
        stroke: #000;
        stroke-width: 1px;
        fill-rule: evenodd;
      }
    </style>
  </defs>
  <path id="B_1" data-name="B 1" class="cls-1" d="M294.533,249.545H617.41v14.676h29.352v29.352H658.5c4.149,11.284,2.935,31.183,2.936,46.964V425.66H673.18c1.776,4.708,2.587,6.97,2.935,14.676H699.6c3.211,6.1,4.728,5.2,5.87,14.676H734.82v29.353H749.5V701.573c-4.708,1.777-6.97,2.587-14.676,2.935v29.353H705.467V745.6c-24.286,8.853-93.861,2.935-126.215,2.935H294.533V733.861H265.18V704.508H250.5V293.573H265.18V264.221h29.353V249.545Zm117.41,117.41v14.676H397.266V425.66h14.677v14.676H500V425.66h14.676V381.631H500V366.955H411.943Zm0,190.791v14.676H397.266v44.029h14.677v14.676H588.057V616.451h14.677V572.422H588.057V557.746H411.943Z"/>
</svg>
