<svg xmlns="http://www.w3.org/2000/svg" width="1000" height="1000" viewBox="0 0 1000 1000">
  <defs>
    <style>
      .cls-1 {
        fill: #0f0f0f;
        stroke: #000;
        stroke-width: 1px;
        fill-rule: evenodd;
      }
    </style>
  </defs>
  <path id="C_1" data-name="C 1" class="cls-1" d="M294.533,249.545H705.467v14.676H734.82v29.352H749.5v55.77c-4.708,1.777-6.97,2.587-14.676,2.935v29.353H705.467v11.741c-23.041,8.415-65.4,2.935-93.928,2.935h-199.6v14.676H397.266V587.1h11.741c1.777,4.709,2.588,6.971,2.936,14.676H705.467v14.677H734.82V645.8H749.5v73.381H734.82v8.806c-9.735,5.154-12.821,6.042-29.353,5.871V745.6c-24.286,8.853-93.861,2.935-126.215,2.935H294.533V733.861H265.18V704.508H250.5V293.573H265.18V264.221h29.353V249.545Z"/>
</svg>
