<svg xmlns="http://www.w3.org/2000/svg" width="1000" height="1000" viewBox="0 0 1000 1000">
  <defs>
    <style>
      .cls-1 {
        fill: #0f0f0f;
        stroke: #000;
        stroke-width: 1px;
        fill-rule: evenodd;
      }
    </style>
  </defs>
  <path id="D_1" data-name="D 1" class="cls-1" d="M294.13,250.015H632.345V264.72h38.233c3.217,6.112,4.737,5.208,5.882,14.7h26.469c1.78,4.718,2.592,6.984,2.941,14.7h11.764c2.7,7.167,3.049,18.215,2.941,29.41H729.4c0.977,1.859,5.882,5.882,5.882,5.882v38.233h14.705v264.69H735.28v38.233c-6.112,3.217-5.208,4.737-14.7,5.882v29.41H705.87v14.705H676.46V729.4c-1.859.977-5.882,5.882-5.882,5.882H632.345v14.705H294.13V735.28H264.72V705.87H250.015V294.13H264.72V264.72h29.41V250.015Zm117.64,147.05v14.7h-14.7V588.23h11.764c1.78,4.717,2.592,6.984,2.941,14.7H588.23v-8.823c6.112-3.217,5.207-4.737,14.7-5.882V411.77H591.171c-1.78-4.717-2.592-6.984-2.941-14.7H411.77Z"/>
</svg>
