<svg xmlns="http://www.w3.org/2000/svg" width="1000" height="1000" viewBox="0 0 1000 1000">
  <defs>
    <style>
      .cls-1 {
        fill: #0f0f0f;
        stroke: #000;
        stroke-width: 1px;
        fill-rule: evenodd;
      }
    </style>
  </defs>
  <path id="E_1" data-name="E 1" class="cls-1" d="M294.118,250H705.882v14.706h29.412v29.412H750V350c-4.718,1.78-6.984,2.592-14.706,2.941v29.412H705.882v11.765c-21.6,7.887-69.274,2.941-97.058,2.941H397.059v29.412h176.47v14.7h29.412v29.412h8.824c7.164,13.679,6.121,31.369,5.882,52.941-3.349,3.351-1.172.011-2.941,5.883H602.941v29.412H573.529v14.705H397.059v29.412H705.882v14.706h29.412v29.412H750v55.882c-4.718,1.78-6.984,2.593-14.706,2.941v29.412H705.882v11.765h-2.941V750H294.118V735.294H264.706V705.882H250V294.118h14.706V264.706h29.412V250Z"/>
</svg>
