<svg xmlns="http://www.w3.org/2000/svg" width="1000" height="1000" viewBox="0 0 1000 1000">
  <defs>
    <style>
      .cls-1 {
        fill: #0f0f0f;
        stroke: #000;
        stroke-width: 1px;
        fill-rule: evenodd;
      }
    </style>
  </defs>
  <path id="G_1" data-name="G 1" class="cls-1" d="M294.533,249.545H705.467v14.676H734.82v29.352H749.5v55.77c-4.708,1.777-6.97,2.587-14.676,2.935v29.353H705.467v11.741c-3.33,2.478-.427-0.372-2.935,2.935H411.943v14.676H397.266V587.1h11.741c1.777,4.709,2.588,6.971,2.936,14.676H588.057v-8.8c6.1-3.211,5.2-4.728,14.677-5.871V499.041H617.41V469.688h29.352V455.012h55.77c1.777,4.708,2.587,6.97,2.935,14.676H734.82v29.353H749.5V701.573c-4.708,1.777-6.97,2.587-14.676,2.935v29.353H705.467V745.6c-24.286,8.853-93.861,2.935-126.215,2.935H294.533V733.861H265.18V704.508H250.5V293.573H265.18V264.221h29.353V249.545Z"/>
</svg>
