<svg xmlns="http://www.w3.org/2000/svg" width="1000" height="1000" viewBox="0 0 1000 1000">
  <defs>
    <style>
      .cls-1 {
        fill: #0f0f0f;
        stroke: #000;
        stroke-width: 1px;
        fill-rule: evenodd;
      }
    </style>
  </defs>
  <path id="H_1" data-name="H 1" class="cls-1" d="M294.588,249.539h58.787v14.7h29.394V293.63h14.7V411.205h11.757c1.779,4.715,2.591,6.98,2.94,14.7H588.525v-8.818c6.108-3.216,5.205-4.735,14.7-5.879V293.63h14.7V264.236h29.393v-14.7H706.1v14.7h29.394V293.63h14.7V702.2c-3.335,2.481-.428-0.373-2.94,2.939H735.494v29.394H706.1v11.757c-14.06,5.23-39.932,3.087-58.788,2.94v-14.7H617.919V705.142h-14.7V587.567H591.464c-1.779-4.715-2.591-6.98-2.939-14.7H412.163v14.7h-14.7V702.2c-4.715,1.779-6.981,2.591-14.7,2.939v29.394H353.375v11.757c-14.06,5.23-39.932,3.087-58.787,2.94v-14.7H265.194V705.142H250.5V293.63h14.7V264.236h29.394v-14.7Z"/>
</svg>
