<svg xmlns="http://www.w3.org/2000/svg" width="1000" height="1000" viewBox="0 0 1000 1000">
  <defs>
    <style>
      .cls-1 {
        fill: #0f0f0f;
        stroke: #000;
        stroke-width: 1px;
        fill-rule: evenodd;
      }
    </style>
  </defs>
  <path id="I_1" data-name="I 1" class="cls-1" d="M294.13,250.015H705.87V264.72h29.41v29.41h14.705v55.879c-4.718,1.78-6.984,2.592-14.705,2.941v29.41H705.87v11.764c-22.559,8.306-87.371,3.08-117.64,2.941v14.7H573.525V588.23h11.764c1.78,4.718,2.592,6.984,2.941,14.7H705.87V617.64h29.41v29.41h14.705v55.879c-4.718,1.78-6.984,2.592-14.705,2.941v29.41H705.87v11.764c-3.337,2.483-.428-0.373-2.941,2.941H294.13V735.28H264.72V705.87H250.015V647.05H264.72V617.64h29.41V602.935H411.77v-8.823c6.112-3.217,5.208-4.737,14.705-5.882V411.77H414.711c-1.78-4.718-2.592-6.984-2.941-14.7H294.13v-14.7H264.72V352.95H250.015V294.13H264.72V264.72h29.41V250.015Z"/>
</svg>
