<svg xmlns="http://www.w3.org/2000/svg" width="1000" height="1000" viewBox="0 0 1000 1000">
  <defs>
    <style>
      .cls-1 {
        fill: #0f0f0f;
        stroke: #000;
        stroke-width: 1px;
        fill-rule: evenodd;
      }
    </style>
  </defs>
  <path id="J_1" data-name="J 1" class="cls-1" d="M294.344,249.733H705.656v14.69h29.379V293.8h14.69v55.821c-4.713,1.779-6.977,2.59-14.69,2.938v29.38H705.656v11.751c-22.535,8.3-87.28,3.077-117.518,2.938v14.69h-14.69V702.176c-3.333,2.48-.427-0.373-2.937,2.938H558.759v29.379h-29.38v11.752c-18.6,6.8-52.648,2.938-76.386,2.938H294.344v-14.69H264.965V705.114h-14.69V646.355h14.69V616.976h29.379v-14.69H411.862v-8.814c6.1-3.214,5.2-4.732,14.69-5.876V411.32H414.8c-1.779-4.713-2.59-6.977-2.938-14.69H294.344V381.941H264.965v-29.38h-14.69V293.8h14.69V264.423h29.379v-14.69Z"/>
</svg>
