<svg xmlns="http://www.w3.org/2000/svg" width="1000" height="1000" viewBox="0 0 1000 1000">
  <defs>
    <style>
      .cls-1 {
        fill: #0f0f0f;
        stroke: #000;
        stroke-width: 1px;
        fill-rule: evenodd;
      }
    </style>
  </defs>
  <path id="K_1" data-name="K 1" class="cls-1" d="M294.118,250h58.823v14.706h29.412v29.412h14.706V426.471h14.706v14.7H500v-14.7h14.706V294.118h14.706V264.706h29.412V250h58.823v14.706h29.412v29.412h11.764c4.158,11.306,2.941,31.246,2.942,47.059v85.294H676.47v14.7h29.412v14.706h29.412v29.412H750V705.882H735.294v29.412H705.882V750H647.059V735.294H617.647V705.882H602.941V573.529H588.235V558.824H411.765v14.705H397.059V705.882H382.353v29.412H352.941V750H294.118V735.294H264.706V705.882H250V294.118h14.706V264.706h29.412V250Z"/>
</svg>
