<svg xmlns="http://www.w3.org/2000/svg" width="1000" height="1000" viewBox="0 0 1000 1000">
  <defs>
    <style>
      .cls-1 {
        fill: #0f0f0f;
        stroke: #000;
        stroke-width: 1px;
        fill-rule: evenodd;
      }
    </style>
  </defs>
  <path id="M_1" data-name="M 1" class="cls-1" d="M294.344,249.745H705.656v14.69h29.379v29.379h14.69V702.187c-4.713,1.779-6.977,2.59-14.69,2.938v29.38H705.656v11.751c-14.054,5.228-39.913,3.085-58.759,2.938V734.505H617.518v-29.38h-14.69V396.642h-29.38V572.918H558.759V602.3h-29.38v11.752c-14.174,2.544-34.483,2.97-52.882,2.938-3.214-6.105-4.733-5.2-5.876-14.69h-29.38V572.918H426.552V396.642h-29.38V702.187c-4.713,1.779-6.977,2.59-14.69,2.938v29.38H353.1v11.751c-17.7,6.562-50.64,3.089-73.448,2.938V734.505h-8.814c-5.159-9.744-6.047-12.833-5.876-29.38h-14.69V293.814h14.69V264.435h29.379v-14.69Z"/>
</svg>
