<svg xmlns="http://www.w3.org/2000/svg" width="1000" height="1000" viewBox="0 0 1000 1000">
  <defs>
    <style>
      .cls-1 {
        fill: #0f0f0f;
        stroke: #000;
        stroke-width: 1px;
        fill-rule: evenodd;
      }
    </style>
  </defs>
  <path id="N_1" data-name="N 1" class="cls-1" d="M294.314,249.757H382.4v14.68h23.489c3.212,6.1,4.73,5.2,5.872,14.681H426.44v29.361h11.745c1.777,4.71,2.588,6.973,2.936,14.681h11.744c1.778,4.71,2.588,6.973,2.937,14.681h11.744c2.695,7.154,3.044,18.184,2.936,29.361h14.681v14.681h8.808c3.212,6.1,4.73,5.2,5.873,14.681h14.68v29.361h11.745c1.777,4.71,2.588,6.973,2.936,14.681H540.95c1.777,4.71,2.588,6.972,2.936,14.681h11.745c1.777,4.71,2.588,6.972,2.936,14.68h29.361V458.223c4.71-1.777,6.973-2.588,14.681-2.936V293.8H617.29V264.437h29.361v-14.68h58.723v14.68h29.361V293.8h14.681V701.923c-4.71,1.777-6.972,2.588-14.681,2.936V734.22H705.374v11.745c-21.385,7.9-61.3,3.091-88.084,2.936V734.22H593.8c-3.211-6.1-4.729-5.2-5.872-14.68H573.247V690.178H561.5c-1.777-4.71-2.588-6.972-2.936-14.68H546.822c-1.777-4.71-2.588-6.973-2.936-14.681H532.141c-2.695-7.155-3.044-18.184-2.936-29.362H514.524v-14.68h-8.808c-3.212-6.1-4.729-5.2-5.872-14.681H485.163V572.732H473.418c-1.777-4.709-2.588-6.972-2.936-14.68H458.738c-1.778-4.71-2.588-6.973-2.936-14.681H444.057c-1.777-4.71-2.588-6.973-2.936-14.681H411.759v14.681h-14.68V701.923c-4.71,1.777-6.973,2.588-14.681,2.936V734.22H353.037v11.745c-14.045,5.224-39.888,3.083-58.723,2.936V734.22H264.952V704.859H250.271V293.8h14.681V264.437h29.362v-14.68Z"/>
</svg>
