<svg xmlns="http://www.w3.org/2000/svg" width="1000" height="1000" viewBox="0 0 1000 1000">
  <defs>
    <style>
      .cls-1 {
        fill: #0f0f0f;
        stroke: #000;
        stroke-width: 1px;
        fill-rule: evenodd;
      }
    </style>
  </defs>
  <path id="O_1" data-name="O 1" class="cls-1" d="M294.558,249.575H705.442V264.25h29.349V293.6h14.675v407.95c-4.708,1.776-6.97,2.587-14.675,2.935v29.348H705.442v11.74c-24.283,8.853-93.849,2.935-126.2,2.935H294.558V733.832H265.209V704.484H250.534V293.6h14.675V264.25h29.349V249.575ZM411.953,396.32v14.674H397.279V587.088h11.739c1.777,4.708,2.587,6.969,2.935,14.674H588.047v-8.8c6.1-3.211,5.2-4.728,14.674-5.87V410.994H590.982c-1.777-4.707-2.587-6.969-2.935-14.674H411.953Z"/>
</svg>
