<svg xmlns="http://www.w3.org/2000/svg" width="1000" height="1000" viewBox="0 0 1000 1000">
  <defs>
    <style>
      .cls-1 {
        fill: #0f0f0f;
        stroke: #000;
        stroke-width: 1px;
        fill-rule: evenodd;
      }
    </style>
  </defs>
  <path id="R_1" data-name="R 1" class="cls-1" d="M294.155,250.045H617.626v14.7h29.406v29.406H658.8c4.156,11.305,2.94,31.24,2.94,47.05v85.279h14.7v14.7h29.407v14.7h29.406V485.3h14.7V705.845h-14.7v29.406H705.845v14.7H647.032v-14.7H617.626V705.845h-14.7V573.516h-14.7v-14.7H411.781v14.7h-14.7V705.845h-14.7v29.406H352.968v14.7H294.155v-14.7H264.749V705.845h-14.7V294.155h14.7V264.749h29.406v-14.7ZM411.781,382.374v14.7h-14.7v44.109h14.7v14.7H500v-14.7h14.7V397.078H500v-14.7H411.781Z"/>
</svg>
