<svg xmlns="http://www.w3.org/2000/svg" width="1000" height="1000" viewBox="0 0 1000 1000">
  <defs>
    <style>
      .cls-1 {
        fill: #0f0f0f;
        stroke: #000;
        stroke-width: 1px;
        fill-rule: evenodd;
      }
    </style>
  </defs>
  <path id="Y_1" data-name="Y 1" class="cls-1" d="M294.142,250.03h58.817v14.7h29.408v29.408h14.7v29.409h14.7v29.408h14.7v14.7h14.705v14.7h14.7v14.7H485.3v14.7H514.7v-14.7h29.408v-14.7h14.7v-14.7h14.7v-14.7h14.7V323.551h14.7V294.142h14.7V264.734h29.408v-14.7h58.817v14.7h29.408v29.408h14.7V411.775h-14.7v29.409h-14.7v14.7h-14.7v14.7h-14.7v14.7H676.449V500h-14.7v14.7h-14.7v14.7h-14.7v14.7h-14.7v14.7h-14.7v14.7h-14.7v29.408h-14.7V705.858h-14.7v29.408H529.408v14.7H470.592v-14.7H441.184V705.858H426.479V602.929h-14.7V573.521h-14.7v-14.7h-14.7v-14.7h-14.7v-14.7h-14.7V514.7h-14.7V500h-14.7V485.3h-14.7v-14.7h-14.7v-14.7h-14.7v-14.7h-14.7V411.775h-14.7V294.142h14.7V264.734h29.408v-14.7Z"/>
</svg>
